<?xml version="1.0" encoding="UTF-8"?>
<svg width="65px" height="57px" viewBox="0 0 65 57" version="1.1" xmlns="http://www.w3.org/2000/svg" xmlns:xlink="http://www.w3.org/1999/xlink">
    <!-- Generator: Sketch 53.2 (72643) - https://sketchapp.com -->
    <title>Heart</title>
    <desc>Created with Sketch.</desc>
    <g id="Page-1" stroke="none" stroke-width="1" fill="none" fill-rule="evenodd">
        <path d="M18.5375174,2.01741346 C14.1224873,2.01741346 9.96987511,3.74936292 6.84690238,6.89451051 C3.72392964,10.0406668 2.00318969,14.2237736 2.00318969,18.6711616 C2.00318969,23.1195583 3.72292805,27.3006477 6.84690238,30.4457953 L30.2962409,54.0616373 C31.5141803,55.287216 33.4953349,55.2892334 34.7142758,54.0616373 L58.164616,30.4447866 C64.6088772,23.9537588 64.6088772,13.3885645 58.1636144,6.89451051 C55.0376369,3.74936292 50.8860262,2.01741346 46.4719977,2.01741346 C42.0539628,2.01741346 37.9013506,3.74936292 34.7793795,6.89451051 L32.5067608,9.18730091 L30.2301357,6.89451051 C27.1041582,3.74936292 22.9515459,2.01741346 18.5375174,2.01741346 M32.5057592,57 C31.1355774,57 29.848528,56.463368 28.8799858,55.4879486 L5.43064726,31.8721066 C1.92907168,28.3466766 0,23.6582077 0,18.6711616 C0,13.6841155 1.92907168,8.99564663 5.43064726,5.46819919 C8.93222285,1.94176046 13.5876357,0 18.5375174,0 C23.4863976,0 28.1418104,1.94176046 31.6463908,5.46819919 L32.5047576,6.33366957 L33.3621228,5.4692079 C36.8636984,1.94176046 41.5181096,0 46.4719977,0 C51.4208779,0 56.0762907,1.94176046 59.5808711,5.46819919 C66.8063763,12.7490444 66.8063763,24.5942875 59.5808711,31.8721066 L59.5798695,31.8731153 L36.1305309,55.4879486 C35.1629903,56.463368 33.8749393,57 32.5057592,57" id="Heart" fill="#382E2C"></path>
    </g>
</svg>